#!OML:ASF H:\Punching\Project 1\Capture day 1\Session 1\female.ASF
:FULLY-SPECIFIED
:DEGREES
2533
root 0.482681 15.188 11.5344 17.2504 -23.8705 -4.85993
lowerback 1.70176 -3.43611 -1.03482
upperback -4.90203 -4.49016 4.21235
thorax -5.62788 -2.09974 5.26133
lowerneck -6.39638 10.8036 17.1015
upperneck 28.1126 15.3471 -10.7755
head 12.6167 7.53154 -4.81135
rclavicle 3.37934e-015 2.84262e-014
rhumerus 14.822 45.6633 -86.5555
rradius 123.617
rwrist 1.00344
rhand -37.8608 -1.72944
rfingers 7.12502
rthumb -10.905 -31.4263
lclavicle 3.37934e-015 2.84262e-014
lhumerus 42.7927 -32.4791 77.9621
lradius 68.5111
lwrist -13.6212
lhand -39.8413 1.39075
lfingers 7.12502
lthumb -12.8148 30.9774
rfemur -5.05938 9.60125 4.42935
rtibia 13.1028
rfoot -13.3374 -8.77372
rtoes -13.5353
lfemur -43.3629 7.04628 -12.4563
ltibia 48.7989
lfoot -14.7084 11.0962
ltoes -5.23938
2534
root 0.454097 15.1853 11.5246 17.085 -23.8034 -4.78095
lowerback 1.64877 -3.36047 -1.05371
upperback -4.93423 -4.39133 4.15789
thorax -5.64356 -2.04996 5.20722
lowerneck -6.42433 10.7132 17.0573
upperneck 28.1684 15.2064 -10.7087
head 12.6092 7.47133 -4.80377
rclavicle 5.34731e-014 1.70955e-014
rhumerus 14.7299 45.2772 -86.1927
rradius 123.695
rwrist 0.868189
rhand -37.8099 -1.56252
rfingers 7.12502
rthumb -10.8559 -31.2619
lclavicle 5.34731e-014 1.70955e-014
lhumerus 42.8481 -32.2433 77.3731
lradius 68.3305
lwrist -13.6076
lhand -39.5451 1.45472
lfingers 7.12502
lthumb -12.5292 31.0591
rfemur -4.95229 9.54046 4.42904
rtibia 13.217
rfoot -13.721 -8.56072
rtoes -13.1733
lfemur -43.1797 6.93735 -12.3451
ltibia 48.7383
lfoot -14.667 11.0692
ltoes -5.40425
2535
root 0.422927 15.1827 11.5127 16.9311 -23.7202 -4.6943
lowerback 1.5698 -3.29153 -1.06914
upperback -4.97616 -4.30129 4.10832
thorax -5.65358 -2.00477 5.15544
lowerneck -6.44016 10.6172 16.9976
upperneck 28.2203 15.0638 -10.6488
head 12.5965 7.4085 -4.79733
rclavicle -4.91495e-014 2.76311e-014
rhumerus 14.6468 44.8554 -85.7904
rradius 123.741
rwrist 0.802897
rhand -37.7447 -1.48783
rfingers 7.12502
rthumb -10.793 -31.1905
lclavicle -4.91495e-014 2.76311e-014
lhumerus 42.851 -31.9959 76.7547
lradius 68.1588
lwrist -13.8136
lhand -39.2077 1.58029
lfingers 7.12502
lthumb -12.2039 31.2043
rfemur -4.86334 9.47016 4.43871
rtibia 13.3394
rfoot -14.1814 -8.40848
rtoes -12.9992
lfemur -43.0032 6.83844 -12.2367
ltibia 48.6453
lfoot -14.6161 11.0274
ltoes -5.56696
2536
root 0.389047 15.1801 11.4988 16.7843 -23.6239 -4.59703
lowerback 1.46868 -3.23168 -1.08866
upperback -5.02788 -4.22346 4.0659
thorax -5.65924 -1.96541 5.11315
lowerneck -6.44197 10.5211 16.9286
upperneck 28.2752 14.929 -10.6016
head 12.584 7.34741 -4.79374
rclavicle -1.66358e-013 2.26615e-014
rhumerus 14.5944 44.406 -85.3322
rradius 123.76
rwrist 0.778196
rhand -37.6543 -1.5456
rfingers 7.12502
rthumb -10.7058 -31.2528
lclavicle -1.66358e-013 2.26615e-014
lhumerus 42.7929 -31.7292 76.103
lradius 68.0141
lwrist -14.1879
lhand -38.8188 1.73807
lfingers 7.12502
lthumb -11.8289 31.384
rfemur -4.7889 9.39495 4.45676
rtibia 13.4679
rfoot -14.7077 -8.33038
rtoes -13.0947
lfemur -42.8292 6.75048 -12.1337
ltibia 48.5188
lfoot -14.5525 10.9724
ltoes -5.72908
2537
root 0.352544 15.1778 11.4826 16.6427 -23.511 -4.49021
lowerback 1.34901 -3.17986 -1.10438
upperback -5.08824 -4.15618 4.02625
thorax -5.66245 -1.93148 5.07147
lowerneck -6.43002 10.4243 16.8544
upperneck 28.3325 14.7998 -10.5655
head 12.5712 7.28769 -4.79332
rclavicle 9.76281e-014 3.20043e-014
rhumerus 14.5494 43.9183 -84.8373
rradius 123.742
rwrist 0.797995
rhand -37.526 -1.59394
rfingers 7.12502
rthumb -10.5821 -31.3075
lclavicle 9.76281e-014 3.20043e-014
lhumerus 42.6751 -31.4549 75.4028
lradius 67.9233
lwrist -14.6375
lhand -38.3643 1.93518
lfingers 7.12502
lthumb -11.3906 31.6058
rfemur -4.72149 9.31725 4.48646
rtibia 13.5947
rfoot -15.2729 -8.32855
rtoes -13.4037
lfemur -42.6576 6.66538 -12.0305
ltibia 48.3595
lfoot -14.4719 10.9036
ltoes -5.87909
2538
root 0.313324 15.1759 11.4641 16.5018 -23.3812 -4.37429
lowerback 1.21908 -3.13796 -1.11812
upperback -5.15679 -4.10198 3.98916
thorax -5.66714 -1.90404 5.03191
lowerneck -6.40203 10.3302 16.7815
upperneck 28.3922 14.6807 -10.5418
head 12.5592 7.23188 -4.79694
rclavicle -1.00635e-014 -3.1408e-014
rhumerus 14.4972 43.3932 -84.3174
rradius 123.696
rwrist 0.841419
rhand -37.3662 -1.61464
rfingers 7.12502
rthumb -10.4279 -31.336
lclavicle -1.00635e-014 -3.1408e-014
lhumerus 42.4828 -31.179 74.6514
lradius 67.9175
lwrist -15.0814
lhand -37.8484 2.2109
lfingers 7.12502
lthumb -10.893 31.9084
rfemur -4.65463 9.24071 4.53105
rtibia 13.715
rfoot -15.8396 -8.39692
rtoes -13.9095
lfemur -42.4843 6.57911 -11.9234
ltibia 48.167
lfoot -14.3689 10.8219
ltoes -6.01971
2539
root 0.271644 15.1745 11.4434 16.3505 -23.2352 -4.2441
lowerback 1.08749 -3.10425 -1.12731
upperback -5.22626 -4.05876 3.94688
thorax -5.67145 -1.88241 4.98493
lowerneck -6.37134 10.2419 16.7139
upperneck 28.4602 14.5723 -10.5244
head 12.5531 7.18076 -4.80216
rclavicle 2.85008e-014 4.37326e-015
rhumerus 14.4352 42.8322 -83.769
rradius 123.632
rwrist 0.883693
rhand -37.1819 -1.63735
rfingers 7.12502
rthumb -10.2501 -31.3676
lclavicle 2.85008e-014 4.37326e-015
lhumerus 42.2216 -30.9029 73.8442
lradius 68.0195
lwrist -15.4245
lhand -37.2258 2.49085
lfingers 7.12502
lthumb -10.2925 32.219
rfemur -4.5747 9.16344 4.58622
rtibia 13.8213
rfoot -16.3884 -8.51939
rtoes -14.5269
lfemur -42.3 6.47923 -11.8139
ltibia 47.9421
lfoot -14.2422 10.7322
ltoes -6.14752
2540
root 0.227369 15.1736 11.4204 16.1748 -23.0779 -4.09097
lowerback 0.965028 -3.07642 -1.14265
upperback -5.29262 -4.024 3.89493
thorax -5.67712 -1.86489 4.93223
lowerneck -6.33861 10.158 16.6509
upperneck 28.531 14.4709 -10.5096
head 12.5498 7.13305 -4.80787
rclavicle -7.72775e-015 -2.14687e-014
rhumerus 14.3527 42.2325 -83.192
rradius 123.56
rwrist 0.928069
rhand -36.9917 -1.66613
rfingers 7.12502
rthumb -10.0666 -31.4054
lclavicle -7.72775e-015 -2.14687e-014
lhumerus 41.8801 -30.6279 72.9909
lradius 68.2459
lwrist -15.607
lhand -36.4726 2.77126
lfingers 7.12502
lthumb -9.56579 32.5341
rfemur -4.47094 9.08722 4.64498
rtibia 13.9117
rfoot -16.9001 -8.67701
rtoes -15.1811
lfemur -42.0899 6.35928 -11.708
ltibia 47.6835
lfoot -14.0915 10.6396
ltoes -6.26099
2541
root 0.180555 15.1733 11.3948 15.974 -22.9098 -3.9227
lowerback 0.854395 -3.04584 -1.14767
upperback -5.3504 -3.98586 3.82231
thorax -5.68274 -1.84668 4.85231
lowerneck -6.31624 10.0742 16.6038
upperneck 28.604 14.3636 -10.4883
head 12.5497 7.08464 -4.81402
rclavicle 3.64273e-014 -1.25234e-014
rhumerus 14.2347 41.5709 -82.5969
rradius 123.486
rwrist 0.957532
rhand -36.7923 -1.71155
rfingers 7.12502
rthumb -9.87422 -31.46
lclavicle 3.64273e-014 -1.25234e-014
lhumerus 41.4649 -30.3753 72.0881
lradius 68.6074
lwrist -15.5922
lhand -35.5639 3.05065
lfingers 7.12502
lthumb -8.689 32.8518
rfemur -4.34273 9.01508 4.71659
rtibia 13.9874
rfoot -17.3631 -8.85779
rtoes -15.804
lfemur -41.8526 6.21745 -11.5969
ltibia 47.3931
lfoot -13.9273 10.5485
ltoes -6.35241
2542
root 0.131295 15.1735 11.3663 15.7487 -22.7315 -3.74084
lowerback 0.767678 -3.01737 -1.14956
upperback -5.40317 -3.95077 3.73732
thorax -5.69741 -1.83021 4.75927
lowerneck -6.30015 9.99546 16.5629
upperneck 28.6807 14.2605 -10.462
head 12.5533 7.03901 -4.81808
rclavicle 2.02388e-014 2.18663e-015
rhumerus 14.0938 40.8744 -81.9615
rradius 123.427
rwrist 0.948189
rhand -36.5711 -1.83718
rfingers 7.12502
rthumb -9.66083 -31.5956
lclavicle 2.02388e-014 2.18663e-015
lhumerus 40.9528 -30.1278 71.1611
lradius 69.1012
lwrist -15.3805
lhand -34.4985 3.35243
lfingers 7.12502
lthumb -7.66071 33.1937
rfemur -4.19731 8.94473 4.80267
rtibia 14.0596
rfoot -17.784 -9.03788
rtoes -16.3986
lfemur -41.5888 6.05149 -11.4795
ltibia 47.0711
lfoot -13.7486 10.4653
ltoes -6.43005
2543
root 0.0793381 15.174 11.3347 15.5076 -22.5502 -3.56205
lowerback 0.698633 -2.98727 -1.1388
upperback -5.44655 -3.9133 3.64381
thorax -5.71371 -1.81339 4.6509
lowerneck -6.29498 9.92231 16.5269
upperneck 28.7573 14.1617 -10.4308
head 12.5602 6.99592 -4.81959
rclavicle -1.97045e-014 -1.39149e-015
rhumerus 13.9245 40.1467 -81.2943
rradius 123.374
rwrist 0.885619
rhand -36.3384 -1.90902
rfingers 7.12502
rthumb -9.43634 -31.6778
lclavicle -1.97045e-014 -1.39149e-015
lhumerus 40.3445 -29.883 70.2117
lradius 69.7238
lwrist -14.9745
lhand -33.2677 3.71488
lfingers 7.12502
lthumb -6.47263 33.596
rfemur -4.04874 8.88699 4.91912
rtibia 14.144
rfoot -18.1561 -9.19798
rtoes -16.9065
lfemur -41.2997 5.87196 -11.3397
ltibia 46.7192
lfoot -13.5552 10.3936
ltoes -6.4928
2544
root 0.0246445 15.1749 11.2993 15.263 -22.3639 -3.39521
lowerback 0.648701 -2.9565 -1.11322
upperback -5.48604 -3.87435 3.54894
thorax -5.73785 -1.79644 4.5339
lowerneck -6.29705 9.85504 16.4884
upperneck 28.8331 14.0698 -10.396
head 12.5689 6.95576 -4.81761
rclavicle -3.18055e-014 1.61016e-014
rhumerus 13.7312 39.3937 -80.5959
rradius 123.338
rwrist 0.725434
rhand -36.0173 -2.02188
rfingers 7.12502
rthumb -9.12651 -31.8044
lclavicle -3.18055e-014 1.61016e-014
lhumerus 39.6233 -29.631 69.2742
lradius 70.455
lwrist -14.4124
lhand -31.857 4.11062
lfingers 7.12502
lthumb -5.11061 34.029
rfemur -3.91628 8.8384 5.07551
rtibia 14.2616
rfoot -18.4757 -9.33406
rtoes -17.3288
lfemur -40.9975 5.68234 -11.1692
ltibia 46.3359
lfoot -13.3386 10.3356
ltoes -6.55439
2545
root -0.0327894 15.1761 11.2605 15.021 -22.173 -3.24086
lowerback 0.610426 -2.92513 -1.07296
upperback -5.52457 -3.83398 3.45559
thorax -5.76844 -1.77937 4.41104
lowerneck -6.29616 9.79163 16.4405
upperneck 28.9016 13.9853 -10.3616
head 12.5746 6.91796 -4.81293
rclavicle 4.97831e-014 6.75868e-015
rhumerus 13.507 38.6295 -79.8739
rradius 123.277
rwrist 0.545372
rhand -35.668 -2.17402
rfingers 7.12502
rthumb -8.78942 -31.971
lclavicle 4.97831e-014 6.75868e-015
lhumerus 38.7827 -29.3713 68.3614
lradius 71.2791
lwrist -13.7158
lhand -30.2572 4.55986
lfingers 7.12502
lthumb -3.56582 34.5098
rfemur -3.80971 8.78944 5.27056
rtibia 14.4328
rfoot -18.7463 -9.44442
rtoes -17.6221
lfemur -40.6858 5.4825 -10.9684
ltibia 45.9178
lfoot -13.0915 10.2933
ltoes -6.61199
